<svg t="1693996039578" class="icon" viewBox="0 0 1024 1024" version="1.1" xmlns="http://www.w3.org/2000/svg" p-id="1653" id="mx_n_1693996039579" width="16" height="16"><path d="M769.861818 910.429091c-60.974545 0-215.970909-23.738182-418.443636-226.676364l-10.705455-10.705454C107.52 435.2 111.243636 264.843636 114.501818 233.192727l0.930909-5.12c5.585455-34.909091 39.098182-69.352727 66.56-88.901818 16.756364-11.636364 48.407273-29.323636 76.334546-25.134545l6.981818 1.396363c38.632727 11.170909 127.069091 128.465455 135.912727 164.770909l4.189091 17.221819-60.043636 59.578181c-7.447273 5.12-11.636364 13.963636-11.170909 22.807273 0 1.396364 1.861818 64.698182 119.156363 187.112727 120.552727 115.432727 184.32 118.225455 184.785455 118.225455 6.981818-0.930909 16.756364-6.050909 24.203636-13.498182 13.032727-15.825455 28.858182-32.116364 46.08-47.476364l6.981818-4.654545c13.032727-6.516364 61.44-21.410909 135.912728 52.596364 8.843636 8.843636 82.850909 87.04 51.665454 142.429091-17.221818 27.927273-37.701818 52.130909-61.44 73.541818l-0.930909 1.861818-8.378182 7.912727c-11.636364 7.912727-24.669091 12.101818-38.632727 12.567273h-5.12c-4.654545 0-10.705455 0.930909-18.618182 0.930909zM176.407273 242.036364c-1.861818 26.065455 0 174.08 208.058182 386.792727l10.705454 10.705454c216.901818 216.901818 368.64 209.454545 385.861818 208.058182h6.981818s3.723636-0.930909 5.12-1.396363l2.327273-2.327273c22.341818-19.549091 39.563636-40.029091 53.527273-62.370909 0-6.516364-15.36-38.632727-42.356364-65.629091-31.185455-31.185455-53.527273-38.632727-62.370909-39.563636-12.567273 11.636364-24.203636 23.738182-34.909091 36.770909l-3.258182 3.258181c-17.221818 17.221818-40.494545 27.927273-64.698181 31.185455-25.134545 0-101.003636-9.774545-233.192728-136.378182-127.534545-133.12-137.309091-210.385455-137.309091-230.865454-0.465455-27.927273 12.567273-54.923636 34.909091-72.610909l26.996364-26.996364c-19.083636-31.650909-67.956364-92.625455-85.643636-104.727273-2.327273 0.465455-13.963636 4.189091-29.323637 14.894546-25.6 17.687273-39.563636 40.029091-40.494545 47.010909v3.723636z"  p-id="1654"></path></svg>